<mxfile host="65bd71144e">
    <diagram id="KAaq1BA5xcZH_h3ENkAI" name="Page-1">
        <mxGraphModel dx="1080" dy="751" grid="1" gridSize="10" guides="1" tooltips="1" connect="1" arrows="1" fold="1" page="1" pageScale="1" pageWidth="850" pageHeight="1100" math="0" shadow="0">
            <root>
                <mxCell id="0"/>
                <mxCell id="1" parent="0"/>
                <mxCell id="2" value="" style="rounded=0;whiteSpace=wrap;html=1;fillColor=#1ba1e2;fontColor=#ffffff;strokeColor=#006EAF;" vertex="1" parent="1">
                    <mxGeometry x="40" y="30" width="760" height="150" as="geometry"/>
                </mxCell>
                <mxCell id="3" value="nav" style="ellipse;shape=cloud;whiteSpace=wrap;html=1;fillColor=#6a00ff;fontColor=#ffffff;strokeColor=#3700CC;" vertex="1" parent="1">
                    <mxGeometry y="10" width="120" height="80" as="geometry"/>
                </mxCell>
                <mxCell id="4" value="" style="rounded=0;whiteSpace=wrap;html=1;fillColor=#76608a;fontColor=#ffffff;strokeColor=#432D57;" vertex="1" parent="1">
                    <mxGeometry x="80" y="60" width="690" height="100" as="geometry"/>
                </mxCell>
                <mxCell id="5" value="ul" style="ellipse;shape=cloud;whiteSpace=wrap;html=1;fillColor=#e51400;fontColor=#ffffff;strokeColor=#B20000;" vertex="1" parent="1">
                    <mxGeometry x="50" y="50" width="90" height="60" as="geometry"/>
                </mxCell>
                <mxCell id="6" value="" style="rounded=0;whiteSpace=wrap;html=1;fillColor=#a0522d;fontColor=#ffffff;strokeColor=#6D1F00;" vertex="1" parent="1">
                    <mxGeometry x="130" y="80" width="170" height="70" as="geometry"/>
                </mxCell>
                <mxCell id="7" value="li" style="ellipse;shape=cloud;whiteSpace=wrap;html=1;fillColor=#6d8764;fontColor=#ffffff;strokeColor=#3A5431;" vertex="1" parent="1">
                    <mxGeometry x="110" y="80" width="60" height="45" as="geometry"/>
                </mxCell>
                <mxCell id="8" value="" style="rounded=0;whiteSpace=wrap;html=1;fillColor=#f8cecc;strokeColor=#b85450;gradientColor=#ea6b66;" vertex="1" parent="1">
                    <mxGeometry x="160" y="110" width="85" height="40" as="geometry"/>
                </mxCell>
                <mxCell id="9" value="a" style="ellipse;shape=cloud;whiteSpace=wrap;html=1;" vertex="1" parent="1">
                    <mxGeometry x="140" y="100" width="60" height="40" as="geometry"/>
                </mxCell>
                <mxCell id="10" value="" style="rounded=0;whiteSpace=wrap;html=1;fillColor=#a0522d;fontColor=#ffffff;strokeColor=#6D1F00;" vertex="1" parent="1">
                    <mxGeometry x="340" y="80" width="170" height="70" as="geometry"/>
                </mxCell>
                <mxCell id="11" value="li" style="ellipse;shape=cloud;whiteSpace=wrap;html=1;fillColor=#6d8764;fontColor=#ffffff;strokeColor=#3A5431;" vertex="1" parent="1">
                    <mxGeometry x="320" y="80" width="60" height="45" as="geometry"/>
                </mxCell>
                <mxCell id="12" value="" style="rounded=0;whiteSpace=wrap;html=1;fillColor=#f8cecc;strokeColor=#b85450;gradientColor=#ea6b66;" vertex="1" parent="1">
                    <mxGeometry x="370" y="110" width="85" height="40" as="geometry"/>
                </mxCell>
                <mxCell id="13" value="a" style="ellipse;shape=cloud;whiteSpace=wrap;html=1;" vertex="1" parent="1">
                    <mxGeometry x="350" y="100" width="60" height="40" as="geometry"/>
                </mxCell>
                <mxCell id="18" value="" style="rounded=0;whiteSpace=wrap;html=1;fillColor=#a0522d;fontColor=#ffffff;strokeColor=#6D1F00;" vertex="1" parent="1">
                    <mxGeometry x="550" y="80" width="170" height="70" as="geometry"/>
                </mxCell>
                <mxCell id="19" value="li" style="ellipse;shape=cloud;whiteSpace=wrap;html=1;fillColor=#6d8764;fontColor=#ffffff;strokeColor=#3A5431;" vertex="1" parent="1">
                    <mxGeometry x="530" y="80" width="60" height="45" as="geometry"/>
                </mxCell>
                <mxCell id="20" value="" style="rounded=0;whiteSpace=wrap;html=1;fillColor=#f8cecc;strokeColor=#b85450;gradientColor=#ea6b66;" vertex="1" parent="1">
                    <mxGeometry x="580" y="110" width="85" height="40" as="geometry"/>
                </mxCell>
                <mxCell id="21" value="a" style="ellipse;shape=cloud;whiteSpace=wrap;html=1;" vertex="1" parent="1">
                    <mxGeometry x="560" y="100" width="60" height="40" as="geometry"/>
                </mxCell>
                <mxCell id="22" value="" style="rounded=0;whiteSpace=wrap;html=1;fillColor=#1ba1e2;fontColor=#ffffff;strokeColor=#006EAF;" vertex="1" parent="1">
                    <mxGeometry x="35" y="210" width="765" height="830" as="geometry"/>
                </mxCell>
                <mxCell id="23" value="main" style="ellipse;shape=cloud;whiteSpace=wrap;html=1;fillColor=#6a00ff;fontColor=#ffffff;strokeColor=#3700CC;" vertex="1" parent="1">
                    <mxGeometry y="190" width="120" height="80" as="geometry"/>
                </mxCell>
                <mxCell id="25" value="" style="rounded=0;whiteSpace=wrap;html=1;fillColor=#008a00;fontColor=#ffffff;strokeColor=#005700;" vertex="1" parent="1">
                    <mxGeometry x="70" y="240" width="710" height="780" as="geometry"/>
                </mxCell>
                <mxCell id="26" value="section" style="ellipse;shape=cloud;whiteSpace=wrap;html=1;fillColor=#a0522d;fontColor=#ffffff;strokeColor=#6D1F00;" vertex="1" parent="1">
                    <mxGeometry x="50" y="230" width="120" height="80" as="geometry"/>
                </mxCell>
                <mxCell id="27" value="&lt;div style=&quot;text-align: justify;&quot;&gt;&lt;div&gt;Lorem, ipsum dolor sit amet consectetur adipisicing elit.&lt;/div&gt;&lt;div&gt;Error dolor, similique aperiam ipsa explicabo, quasi cum&lt;/div&gt;&lt;div&gt;corporis a nam quod sunt alias, ipsum quisquam? Veniam,&lt;/div&gt;&lt;div&gt;exercitationem eos. Quasi amet itaque maiores perferendis&lt;/div&gt;&lt;div&gt;ducimus fuga consectetur. Corrupti obcaecati suscipit&lt;/div&gt;&lt;div&gt;numquam perspiciatis deserunt magni natus, maxime nisi&lt;/div&gt;&lt;div&gt;reprehenderit tempore sequi laudantium pariatur similique&lt;/div&gt;&lt;div&gt;porro itaque illo. Voluptatibus doloribus, deleniti cumque&lt;/div&gt;&lt;div&gt;facere tempora quos officiis voluptatum nam sed? Eveniet&lt;/div&gt;&lt;div&gt;magnam quidem in quam cum excepturi quisquam nemo beatae&lt;/div&gt;&lt;div&gt;mollitia? Facilis ratione incidunt illo quo eveniet&lt;/div&gt;&lt;div&gt;consectetur, at reprehenderit. Tempore, fugiat eius&lt;/div&gt;&lt;div&gt;repudiandae possimus totam nisi quasi atque distinctio quam&lt;/div&gt;&lt;div&gt;delectus velit nostrum at maiores, eveniet optio sint vero,&lt;/div&gt;&lt;div&gt;tempora molestiae vitae eaque? Itaque autem laborum in&lt;/div&gt;&lt;div&gt;possimus nostrum doloremque, quidem eaque molestiae earum&lt;/div&gt;&lt;div&gt;nihil voluptatum dolore eius, placeat saepe deleniti&lt;/div&gt;&lt;div&gt;quisquam tempore. Ipsa vitae assumenda cumque consequuntur&lt;/div&gt;&lt;div&gt;aut porro ut placeat delectus neque hic harum quibusdam&lt;/div&gt;&lt;div&gt;veritatis officiis commodi reprehenderit, repellat provident&lt;/div&gt;&lt;div&gt;odit maxime. Nulla exercitationem tempore provident magni&lt;/div&gt;&lt;div&gt;quo enim. Vitae sapiente quasi eius neque molestiae. Eius&lt;/div&gt;&lt;div&gt;modi nemo quasi quidem? Incidunt dolor laudantium quasi&lt;/div&gt;&lt;div&gt;quidem consequatur quis magni magnam obcaecati perspiciatis&lt;/div&gt;&lt;div&gt;voluptatem, quia quo nihil non ea sequi iste sapiente&lt;/div&gt;&lt;div&gt;aspernatur saepe eligendi ipsam fuga architecto? Laboriosam&lt;/div&gt;&lt;div&gt;necessitatibus nihil omnis corporis maiores maxime, fugiat&lt;/div&gt;&lt;div&gt;sit et delectus asperiores sunt culpa? Nam adipisci, laborum&lt;/div&gt;&lt;div&gt;veniam culpa eos voluptates architecto facere alias a&lt;/div&gt;&lt;div&gt;eligendi voluptatibus eaque minus voluptatem, obcaecati&lt;/div&gt;&lt;div&gt;incidunt numquam fugit ut in! Optio illo omnis dolor rerum&lt;/div&gt;&lt;div&gt;dolore aspernatur. Perspiciatis quis, odio consectetur&lt;/div&gt;&lt;div&gt;eligendi voluptatibus at natus iste aspernatur magnam&lt;/div&gt;&lt;div&gt;voluptate nihil minus? Necessitatibus quibusdam debitis&lt;/div&gt;&lt;div&gt;totam adipisci vel quidem quis porro. Quis, eveniet libero&lt;/div&gt;&lt;div&gt;praesentium earum id voluptatem excepturi fugiat quia unde&lt;/div&gt;&lt;div&gt;eius veritatis enim neque quidem, nihil nemo esse ipsa&lt;/div&gt;&lt;div&gt;eligendi numquam eum, dolorum sed molestias non ab? Nulla&lt;/div&gt;&lt;div&gt;nobis fuga omnis hic reiciendis? Quis ex commodi, magni&lt;/div&gt;&lt;div&gt;voluptas consectetur amet doloremque! Sint doloribus&lt;/div&gt;&lt;div&gt;molestias vero, quasi recusandae et illo veritatis minima&lt;/div&gt;&lt;div&gt;laboriosam, commodi repellat maiores magnam quaerat ullam&lt;/div&gt;&lt;div&gt;modi alias quibusdam ea numquam a velit! Voluptatum sed&lt;/div&gt;&lt;div&gt;commodi maxime omnis doloribus, modi illo, tempora,&lt;/div&gt;&lt;/div&gt;" style="rounded=0;whiteSpace=wrap;html=1;fillColor=#6d8764;fontColor=#ffffff;strokeColor=#3A5431;" vertex="1" parent="1">
                    <mxGeometry x="125" y="290" width="625" height="710" as="geometry"/>
                </mxCell>
                <mxCell id="28" value="p" style="ellipse;shape=cloud;whiteSpace=wrap;html=1;fillColor=#647687;fontColor=#ffffff;strokeColor=#314354;" vertex="1" parent="1">
                    <mxGeometry x="100" y="270" width="120" height="80" as="geometry"/>
                </mxCell>
            </root>
        </mxGraphModel>
    </diagram>
</mxfile>